<?xml version="1.0" encoding="iso-8859-1"?>
<!-- Generator: Adobe Illustrator 16.0.0, SVG Export Plug-In . SVG Version: 6.00 Build 0)  -->
<!DOCTYPE svg PUBLIC "-//W3C//DTD SVG 1.1//EN" "http://www.w3.org/Graphics/SVG/1.1/DTD/svg11.dtd">
<svg version="1.1" id="Capa_1" xmlns="http://www.w3.org/2000/svg" xmlns:xlink="http://www.w3.org/1999/xlink" x="0px" y="0px"
	 width="419.139px" height="419.139px" viewBox="0 0 419.139 419.139" style="enable-background:new 0 0 419.139 419.139;"
	 xml:space="preserve">

<g>
	<path d="M61.711,229.869c-5.203,26.121,11.441,51.73,37.534,57.361c26.365,5.723,52.451-11.074,58.147-37.439l8.025-73.598
		c-26.365-14.307-16.704,44.993-62.243,35.165C71.896,204.588,63.37,224.602,61.711,229.869z" fill="purple"/>
	<path d="M400.293,318.242c-2.062-6.182-8.767-9.598-14.937-7.492l-32.844,10.92l-20.655-62.125
		c16.965-8.326,30.872-21.584,39.487-38.789c10.414-20.783,12.104-44.377,4.399-67.404L321.782,28.627L178.297,76.369l9.583,39.001
		L65.249,88.859l-40.438,130.82c-4.909,22.729-0.681,46.003,11.919,65.537c10.414,16.165,25.674,27.84,43.438,34.271
		l-13.842,63.992l-33.78-7.289c-6.354-1.279-12.661,2.674-14.04,9.061c-1.38,6.381,2.67,12.658,9.057,14.041l45.221,9.77
		c0.033,0,0.05,0.029,0.073,0.029c0.051,0.016,0.111,0,0.163,0.016l45.235,9.77c0.846,0.184,1.676,0.264,2.509,0.264
		c5.442,0,10.336-3.783,11.533-9.322c1.37-6.385-2.675-12.66-9.062-14.045l-33.804-7.309l13.792-63.729
		c2.264,0.184,4.524,0.371,6.789,0.371c40.604,0,76.323-28.859,85.071-69.562l9.588-71.867l6.295,25.597
		c11.844,35.626,45.011,59.562,82.521,59.562c5.387,0,10.719-0.648,15.999-1.646l20.6,61.945l-32.78,10.895
		c-6.201,2.058-9.555,8.75-7.497,14.932c1.651,4.955,6.264,8.094,11.215,8.094c1.232,0,2.496-0.186,3.729-0.604l88.043-29.271
		C399.001,331.117,402.355,324.424,400.293,318.242z M171.83,251.496c-7.193,33.396-41.61,55.811-75.339,48.516l0,0h-0.019
		c-16.553-3.568-30.718-13.365-39.887-27.594c-9.166-14.23-12.259-31.182-8.938-46.748l33.776-109.138l105.328,22.772
		L171.83,251.496z M233.655,202.727L206.444,91.906l102.265-34.021l44.978,103.889c5.352,16.074,4.102,33.264-3.461,48.4
		c-7.587,15.135-20.61,26.42-36.692,31.757c-6.5,2.185-13.255,3.276-20.041,3.276C266.171,245.207,242.025,227.777,233.655,202.727
		z" fill="purple"/>
	<path d="M340.563,168.44c-2.276-5.046-12.86-24.037-43.226-13.946c-44.243,14.715-41.044-45.291-65.682-28.225l15.903,72.273
		c8.522,25.582,36.274,39.493,61.837,30.974C334.747,221.078,348.532,193.822,340.563,168.44z" fill="purple"/>
	<path d="M136.987,26.714c7.356-0.399,13.016-6.698,12.62-14.065C149.21,5.27,142.9-0.38,135.545,0.02
		c-7.387,0.399-13.046,6.698-12.645,14.074C123.303,21.463,129.611,27.113,136.987,26.714z" fill="purple"/>
	<path d="M188.646,50.057c7.352-0.399,13.016-6.698,12.616-14.073c-0.401-7.369-6.71-13.022-14.062-12.623
		c-7.383,0.401-13.043,6.698-12.646,14.066C174.953,44.802,181.26,50.457,188.646,50.057z" fill="purple"/>
	<path d="M129.545,61.278c0.398,7.377,6.706,13.03,14.061,12.628c7.387-0.398,13.047-6.697,12.649-14.072
		c-0.402-7.368-6.711-13.021-14.096-12.622C134.806,47.611,129.149,53.91,129.545,61.278z" fill="purple"/>
</g>

</svg>
