<?xml version="1.0" encoding="UTF-8"?>
<svg xmlns="http://www.w3.org/2000/svg" height="1000" width="748">
<path d="M6.851 612.512q9.765 -41.013 49.802 -131.828t43.943 -145.499q39.06 72.261 44.919 144.522 148.428 -183.582 154.287 -427.707 9.765 5.859 25.389 16.601t57.614 45.895 74.214 73.237 60.543 96.674 34.178 117.18q15.624 -35.154 19.53 -78.12t-9.765 -80.073q15.624 11.718 41.013 39.06t56.637 74.214 55.66 99.603 31.248 118.157 -8.789 126.945 -72.261 126.945 -152.334 120.11q64.449 -128.898 25.389 -278.303t-154.287 -229.478q9.765 42.966 -10.742 141.593t-65.425 149.405q7.812 -62.496 3.906 -101.556t-11.718 -58.59l-9.765 -17.577q-11.718 70.308 -60.543 140.616 -25.389 37.107 -38.084 68.355t-9.765 80.073 30.271 105.462q-134.757 -76.167 -180.653 -154.287t-24.413 -181.629z" fill="orange"/>
</svg>
